Coordinates
version=1
nRows=16
nColumns=36
inDegrees=yes

Units are S.I. units (second, meters, Newtons, ...)
If the header above contains a line with 'inDegrees', this indicates whether rotational values are in degrees (yes) or radians (no).

endheader
time	pelvis_tilt	pelvis_list	pelvis_rotation	pelvis_tx	pelvis_ty	pelvis_tz	hip_flexion_r	hip_adduction_r	hip_rotation_r	knee_angle_r	knee_angle_r_beta	ankle_angle_r	subtalar_angle_r	mtp_angle_r	hip_flexion_l	hip_adduction_l	hip_rotation_l	knee_angle_l	knee_angle_l_beta	ankle_angle_l	subtalar_angle_l	mtp_angle_l	lumbar_extension	lumbar_bending	lumbar_rotation	arm_flex_r	arm_add_r	arm_rot_r	elbow_flex_r	pro_sup_r	arm_flex_l	arm_add_l	arm_rot_l	elbow_flex_l	pro_sup_l
      2.23333330	    -24.53839122	      0.54936601	    -14.10839290	      0.34206734	      0.68023727	      0.03167575	     78.40350962	     11.29881742	     -9.86607801	     84.18418032	      1.46929112	     31.44329785	     -5.73264426	     -7.49999987	     97.94554143	     -5.44750081	     11.52146143	     42.95616307	      0.74972648	      6.14348802	     10.63754835	     -7.49999987	    -18.68383396	     13.64446860	      2.52088649	     51.32373942	     -7.69377944	     65.77049322	     99.25456387	     97.76656994	     49.53642856	     -2.92276727	     50.23002085	     94.10044534	    110.06359890
      2.25000000	    -25.00875381	      0.84751169	    -13.76149290	      0.33516032	      0.67819337	      0.02827876	     79.37026548	     10.98820145	     -9.80109286	     84.39700664	      1.47300564	     31.05311730	     -6.34964186	     -7.49999987	     98.31494340	     -5.22434241	     11.05232716	     42.66073158	      0.74457023	      5.92170788	     10.91597851	     -7.49999987	    -17.89961352	     13.41254244	      2.94597335	     54.22925072	     -8.61551628	     67.96642252	     99.76032473	     97.88114815	     51.03872756	     -1.97899435	     52.05064830	     93.60640274	    110.30096223
      2.26666670	    -25.37906209	      0.90272463	    -13.58578973	      0.33437363	      0.68092908	      0.02804199	     79.72444389	     10.86946812	     -9.80464819	     84.31342538	      1.47154688	     31.21807491	     -6.44179377	     -7.49999987	     98.62731905	     -5.06898968	     11.05294964	     42.85421644	      0.74794718	      6.00149489	     10.87340658	     -7.49999987	    -17.22977663	     13.43233502	      2.95016541	     55.42959773	     -9.09179224	     68.54734933	    100.12857836	     96.25060525	     52.45584319	     -1.32009620	     52.91980210	     93.85181137	    109.76558392
      2.28333330	    -25.35517530	      0.83318764	    -13.46772785	      0.34227821	      0.68520110	      0.03173019	     79.11173401	     11.07869212	     -9.50875906	     83.94796777	      1.46516844	     31.63957012	     -6.59889530	     -7.49999987	     98.53450291	     -5.18440659	     10.98446057	     42.97511660	      0.75005728	      6.40456257	     10.55320288	     -7.49999987	    -16.67795931	     13.33951264	      2.52570082	     54.91458534	     -9.65898673	     68.92259592	    100.17216302	     96.27377454	     52.64257126	     -0.98614085	     52.76600333	     94.07170441	    109.79553885
      2.30000000	    -25.71526837	      0.89887121	    -13.10485288	      0.34128977	      0.68530058	      0.03107286	     79.49804451	     11.10397344	     -9.30696436	     83.87288030	      1.46385791	     31.62218698	     -7.23774798	     -7.49999987	     98.88630482	     -4.95936945	     10.82444272	     43.22403353	      0.75440170	      6.86155994	     10.26637698	     -7.49999987	    -15.39320128	     13.26544049	      2.44466844	     54.64657096	    -10.79079157	     70.17318029	    101.51267556	     95.99976800	     51.97393317	      0.37727592	     54.21781585	     94.82147966	    110.31439149
      2.31666670	    -25.54934736	      0.92898111	    -12.71549206	      0.33342503	      0.69650014	      0.03317174	     79.41242285	     11.12196794	     -9.09148712	     83.49875995	      1.45732828	     31.03880456	     -8.29727684	     -7.49999987	     98.51537320	     -4.76673896	     10.59703288	     43.23216970	      0.75454370	      6.78043765	      9.79253999	     -7.49999987	    -15.36657380	     12.74942262	      2.77035151	     54.10514150	    -10.97837689	     68.41830458	    100.72378566	     96.55837590	     52.79771198	      1.52270747	     56.49797005	     93.77210550	    111.49623461
      2.33333330	    -25.32093720	      0.91815712	    -12.32873555	      0.33296947	      0.70371810	      0.03269292	     79.00840875	     11.11116186	     -8.79480476	     82.63936038	      1.44232893	     30.35289361	     -9.05216817	     -7.49999987	     97.80878508	     -4.64756999	     10.29445665	     43.03998677	      0.75118948	      6.50880878	      9.38267143	     -7.49999987	    -15.56524425	     12.53372765	      2.78749086	     54.78692591	    -10.43542753	     67.76117034	    100.29218805	     96.62367449	     53.67515465	      2.38973373	     56.23065513	     94.23969209	    111.34339683
      2.35000000	    -25.15057972	      0.88957492	    -12.07940346	      0.34163463	      0.71415335	      0.03643681	     77.82465744	     11.33191837	     -8.27039821	     81.09459218	      1.41536764	     30.31250698	     -9.05202058	     -7.49999987	     96.94130172	     -4.70893821	     10.12221864	     42.90310707	      0.74880048	      6.71135143	      8.99598497	     -7.49999987	    -15.36897045	     12.14545292	      2.29448254	     53.87363664	    -10.44179639	     68.10137795	    100.38307594	     96.49957955	     52.52925232	      2.72413668	     56.50022060	     94.30507319	    110.84133404
      2.36666670	    -24.40756042	      0.96778238	    -11.75598639	      0.34007870	      0.72241627	      0.03631879	     76.11854690	     11.38911279	     -7.45588082	     79.46755901	      1.38697055	     29.37590756	    -10.08895359	     -7.49999987	     95.42489796	     -4.72584424	      9.80300225	     42.43849972	      0.74069155	      6.59317790	      8.59042108	     -7.49999987	    -15.87303759	     11.59941262	      1.67041723	     52.62321470	    -11.15171988	     67.66478146	    101.46583349	     96.72124913	     50.64732339	      3.17777320	     56.19945121	     95.29899512	    111.01578824
      2.38333330	    -23.93894604	      0.91175332	    -11.21271500	      0.34070807	      0.72932215	      0.03625478	     74.66185928	     11.36790413	     -6.76956285	     77.85161970	      1.35876709	     28.81053424	    -10.58748210	     -7.49999987	     94.35051164	     -4.65613191	      9.42582224	     42.47672451	      0.74135870	      6.90347817	      8.51093287	     -7.49999987	    -15.72272353	     11.37888398	      0.63479510	     50.53678608	    -12.26301093	     68.28563654	    103.75660745	     96.29353996	     49.74800781	      3.11327834	     56.89360543	     95.80228152	    111.05558442
      2.40000000	    -23.31732056	      0.95724540	    -10.81185021	      0.33994511	      0.73414499	      0.03605276	     73.31303874	     11.20831289	     -6.18975475	     76.51324320	      1.33540802	     28.35057209	    -10.82261407	     -7.49999987	     93.30431732	     -4.66399015	      9.21022854	     42.82312740	      0.74740457	      6.96883174	      8.17245658	     -7.49999987	    -15.78291042	     10.84248250	      0.21874385	     48.77652866	    -12.20397761	     65.77516703	    105.07687592	     97.52169322	     50.89283087	      3.48192903	     56.08276959	     96.63443845	    112.01322245
      2.41666670	    -22.80887989	      1.03107242	    -10.60379443	      0.34090241	      0.74109908	      0.03650355	     72.14463049	     11.08092445	     -5.70060063	     75.29644523	      1.31417088	     27.87094065	    -10.77958781	     -7.49999987	     92.52054933	     -4.81723932	      8.88275340	     42.93764742	      0.74940332	      6.88208679	      8.00488469	     -7.49999987	    -15.57773816	     10.46729567	     -0.19385733	     48.59160986	    -11.89237651	     65.06615373	    105.67368055	     97.78287692	     50.67269040	      3.23143603	     56.33251274	     97.74325514	    111.87532920
      2.43333330	    -22.28328779	      0.95463343	    -10.44556014	      0.34094560	      0.74310110	      0.03635529	     71.09819442	     11.01752241	     -5.48211947	     74.27470984	      1.29633824	     27.62786979	    -10.44747569	     -7.49999987	     91.91267397	     -5.08585239	      8.65097594	     43.16354553	      0.75334599	      6.89594253	      7.79879303	     -7.49999987	    -15.27471304	     10.12619454	     -0.49296738	     48.30684549	    -12.63910255	     65.61419040	    107.62990594	     98.34009871	     50.52000353	      3.25521128	     56.84647983	     98.64722573	    111.21826817
      2.45000000	    -21.97136117	      1.02890992	    -10.21038148	      0.34160159	      0.75648333	      0.03671449	     69.52312510	     10.82884352	     -5.03971706	     72.30872145	      1.26202527	     27.01191730	    -10.69154326	     -7.49999987	     90.73533395	     -5.17297906	      8.14863214	     42.37218187	      0.73953408	      6.65033278	      7.21872577	     -7.49999987	    -14.94926162	      9.86157048	     -0.76127458	     47.93302438	    -13.37322200	     66.34458884	    108.43570100	     99.59998329	     50.62014278	      2.95440093	     58.46987330	     98.43650057	    111.89705360
      2.46666670	    -21.10297508	      0.91961460	    -10.25907185	      0.34114313	      0.77172099	      0.03650191	     67.01013200	     10.77786977	     -4.61533553	     69.75832897	      1.21751252	     26.09153011	    -10.79762010	     -7.49999987	     88.75730230	     -5.46561132	      7.74355180	     40.77189438	      0.71160380	      6.07053789	      6.95357154	     -7.49999987	    -15.56655036	      9.81862700	     -1.07209628	     47.08430868	    -12.68504103	     65.18798318	    107.18064751	     98.92594787	     51.24635716	      2.39528697	     57.62147494	     98.16213178	    111.49290752
      2.48333330	    -20.19416445	      0.93139124	    -10.08980421	      0.35016268	      0.78420532	      0.03449810	     63.85564008	     10.65799428	     -3.82810939	     67.02179288	      1.16975096	     25.49394559	    -11.30957887	     -7.49999987	     86.42017087	     -5.39170631	      7.46349798	     39.60256822	      0.69119521	      6.47589787	      6.55001817	     -7.49999987	    -16.01548697	      9.60392319	     -1.32541551	     47.79132956	    -12.49739672	     65.34217032	    106.80112595	     99.27562956	     51.77381210	      2.15490578	     58.03466248	     97.91673481	    111.50779006
